Fly_normalized_Motion_pl07
version=1
nRows=16
nColumns=43
inDegrees=yes
endheader
time		pelvis_tilt		pelvis_list		pelvis_rotation		pelvis_tx		pelvis_ty		pelvis_tz		hip_flexion_r		hip_adduction_r		hip_rotation_r		knee_angle_r		ankle_angle_r		subtalar_angle_r		mtp_angle_r		hip_flexion_l		hip_adduction_l		hip_rotation_l		knee_angle_l		ankle_angle_l		subtalar_angle_l		mtp_angle_l		lumbar_extension		lumbar_bending		lumbar_rotation		neck_flexion		neck_lateral_bending		neck_rotation		arm_flex_r		arm_add_r		arm_rot_r		elbow_flex_r		pro_sup_r		wrist_flex_r		wrist_dev_r		hand_finger_flex_r		arm_flex_l		arm_add_l		arm_rot_l		elbow_flex_l		pro_sup_l		wrist_flex_l		wrist_dev_l		hand_finger_flex_l		
2.661616		3.840728		-12.768167		92.982730		-0.011921		1.625782		1.159016		65.568678		-6.264376		-6.775981		-98.730508		-14.804904		-1.368475		25.764618		54.790767		-9.887792		4.242309		-104.177051		-8.355773		-11.957352		10.186949		-30.522222		3.357913		-1.691034		1.240742		6.783997		3.324131		67.064181		-16.348176		13.703677		56.095023		112.481675		0.234337		-10.275689		-28.942850		56.634179		-34.704648		13.235821		64.907697		124.212861		-7.715505		-0.367058		-23.009334		
2.665581		3.859348		-12.565755		93.051811		-0.012126		1.622993		1.151402		65.152266		-6.267117		-7.029479		-97.286501		-15.335475		-1.397743		26.140258		54.788811		-9.820295		3.954347		-102.741390		-8.762202		-10.909408		10.218643		-30.585490		3.486413		-1.710025		0.868056		6.645002		3.212996		65.304552		-16.676694		12.750095		55.824245		112.822631		0.258211		-9.971370		-29.452270		54.528905		-35.739157		12.854347		64.711799		124.120708		-7.330653		-0.178065		-22.693069		
2.669545		3.819906		-12.424029		93.039671		-0.012221		1.620003		1.143858		64.799520		-6.216493		-7.199278		-95.796574		-15.918243		-1.762284		26.585023		54.755565		-9.763766		3.625180		-101.235599		-8.852696		-9.292473		10.593271		-30.638038		3.545202		-1.820933		0.749640		6.458300		3.255898		63.627091		-16.807174		11.702083		55.527904		113.447409		0.526139		-9.402861		-30.130796		52.168030		-36.934286		12.141481		64.803249		123.587728		-6.825105		0.058117		-22.266530		
2.673510		3.766317		-12.238375		93.062964		-0.012419		1.616967		1.136247		64.350474		-6.226545		-7.365794		-94.301232		-16.301480		-1.874902		26.750138		54.677641		-9.676374		3.232479		-99.684228		-9.427850		-8.298590		10.810023		-30.712894		3.574104		-1.843834		0.448096		6.381613		3.084726		61.863049		-17.163257		10.769887		55.189236		113.598941		0.490028		-9.132213		-30.547834		50.001558		-37.989075		11.823103		64.651733		123.311458		-6.715318		0.208593		-22.154085		
2.677475		3.658695		-12.070304		93.007638		-0.012448		1.613823		1.128659		63.909294		-6.191434		-7.462681		-92.772099		-16.686348		-2.157431		26.872526		54.550312		-9.626220		2.773136		-98.073455		-9.946635		-7.095771		11.272003		-30.812965		3.517265		-1.935582		0.299823		6.290019		3.006340		60.159671		-17.346390		9.750194		54.787529		113.822933		0.607249		-8.748703		-30.984235		47.602042		-39.208183		11.324933		64.758516		122.903725		-6.642373		0.404208		-22.055204		
2.681439		3.569990		-11.902727		92.925092		-0.012510		1.610363		1.120984		63.446926		-6.148937		-7.582610		-91.255976		-16.983188		-2.365620		26.864379		54.369504		-9.600308		2.276393		-96.438087		-10.423955		-6.273482		11.845431		-30.883339		3.462210		-1.999392		0.031832		6.144671		3.028325		58.481950		-17.750584		9.088076		54.401070		114.051816		0.863370		-8.464723		-31.261621		45.102638		-40.521804		10.965138		64.986050		122.802017		-6.589860		0.603244		-21.972276		
2.685404		3.513878		-11.746876		92.881015		-0.012539		1.606806		1.113333		62.937893		-6.122433		-7.761003		-89.677580		-17.209735		-2.450518		26.832840		54.212225		-9.589900		1.804852		-94.777196		-11.103650		-5.608819		12.278176		-30.919662		3.424108		-1.988085		-0.376076		6.083740		2.892296		56.737046		-18.225405		8.406349		53.961251		114.160496		0.943460		-8.229612		-31.519350		42.715309		-41.681947		10.742991		65.069795		122.837346		-6.585127		0.747696		-21.928703		
2.689369		3.470958		-11.608718		92.829900		-0.012471		1.603075		1.105648		62.411611		-6.070644		-7.951912		-88.061020		-17.365822		-2.471908		26.766490		54.034465		-9.586905		1.348480		-93.063295		-11.858447		-5.112042		12.425142		-30.921613		3.357250		-1.854064		-0.839995		6.136277		2.650341		54.873560		-18.843329		7.737333		53.589460		114.079217		0.838997		-7.999917		-31.669006		40.423214		-42.702871		10.679260		65.057113		123.113846		-6.717303		0.807007		-21.965583		
2.693333		3.380980		-11.457513		92.686977		-0.012283		1.599196		1.097906		61.865538		-5.950775		-8.054925		-86.413758		-17.566237		-2.567745		26.632980		53.755153		-9.623005		0.783759		-91.301306		-12.536782		-4.744952		12.846328		-30.982736		3.227504		-1.825766		-1.087354		6.104937		2.652108		53.132307		-19.319966		7.172195		53.202008		114.163451		1.014879		-7.544306		-31.854962		37.667877		-43.788729		10.005842		65.386937		124.135049		-6.883485		1.021228		-21.913401		
2.697298		3.295601		-11.294938		92.577196		-0.012163		1.595095		1.090053		61.285470		-5.862032		-8.179823		-84.774015		-17.773524		-2.596274		26.467743		53.428165		-9.645431		0.219536		-89.512755		-13.204838		-4.503755		13.465839		-31.043627		3.131193		-1.876983		-1.332971		6.016398		2.734051		51.456304		-19.786372		6.759303		52.752543		114.396225		1.336883		-7.069862		-32.131223		34.687678		-44.836124		8.992387		65.822051		125.576387		-6.894503		1.264710		-21.718304		
2.701263		3.235872		-11.068567		92.490520		-0.012089		1.590901		1.082051		60.597689		-5.747807		-8.296829		-83.112947		-17.912208		-2.457517		26.358102		52.988016		-9.672317		-0.324031		-87.673608		-13.936189		-4.426630		14.071442		-31.192056		3.065773		-1.923772		-1.457988		5.976872		2.810597		49.756522		-20.290614		6.360258		52.377097		114.703327		1.757967		-6.601092		-32.686335		31.536906		-45.791863		7.734843		66.298450		127.415727		-6.934116		1.298988		-21.587555		
2.705227		3.204185		-10.877122		92.484415		-0.012001		1.586333		1.073930		59.929943		-5.696601		-8.492210		-81.479240		-18.098711		-2.284335		26.347102		52.593961		-9.699315		-0.813261		-85.852772		-14.633095		-4.188218		14.116377		-31.212564		3.004286		-1.766748		-1.951514		6.100762		2.566371		47.772522		-21.104593		5.947389		52.119966		114.818179		1.891976		-6.307855		-32.920353		28.955638		-46.687501		7.463616		66.413781		128.076341		-7.076790		1.256753		-21.658017		
2.709192		3.069827		-10.518848		92.350905		-0.011889		1.581953		1.065752		59.053769		-5.598479		-8.514189		-79.772116		-18.279902		-2.012241		26.468964		51.887105		-9.744921		-1.515170		-83.932041		-15.240623		-4.164349		14.384324		-31.525229		2.864267		-1.941110		-1.929737		5.971116		2.813481		46.191710		-21.519870		5.651600		51.761761		115.626949		2.842716		-5.585693		-33.684743		25.340257		-47.637501		5.635638		67.110317		130.292480		-6.948622		1.274363		-21.587573		
2.713157		3.002033		-10.173026		92.168035		-0.011645		1.577448		1.057607		58.152809		-5.416820		-8.572695		-77.993337		-18.500965		-1.689417		26.756252		51.170390		-9.871161		-2.187433		-81.991977		-15.821981		-4.202752		14.376818		-31.856105		2.733782		-1.991630		-1.786525		5.916591		3.055944		44.530559		-21.997320		5.256914		51.514151		116.747207		3.847706		-4.998161		-34.574600		21.624470		-48.539034		3.853464		67.821463		132.093562		-7.061569		1.089625		-21.839072		
2.717121		2.999900		-10.016839		92.201296		-0.011618		1.572369		1.049545		57.411376		-5.410491		-8.839770		-76.207822		-18.803195		-1.429042		26.967153		50.726333		-9.882216		-2.677906		-80.072484		-16.388844		-4.064810		14.276133		-31.824883		2.725979		-1.931878		-2.311053		5.984149		2.965837		42.622502		-22.778070		5.025391		51.157644		117.515528		4.477144		-4.814141		-35.246439		18.579688		-49.236420		2.909253		68.058001		132.990206		-6.891469		0.947073		-21.946406		
2.721086		2.945866		-9.679545		92.054428		-0.011463		1.567615		1.041445		56.451001		-5.266103		-8.915177		-74.317154		-19.207056		-1.092524		27.186225		49.959844		-9.953750		-3.309519		-78.046690		-16.919228		-4.106232		13.999714		-32.104416		2.601576		-1.824913		-2.331369		6.132974		2.897169		40.738253		-23.418855		4.514727		51.113458		118.887500		5.322780		-4.124654		-35.658585		15.118694		-49.764595		1.310085		68.491826		134.272890		-7.086721		0.740515		-22.261939		
